HIERARCHY
ROOT Hips
{
	OFFSET 0.000000 0.000000 0.000000 
	CHANNELS 6 Xposition Yposition Zposition Yrotation Zrotation Xrotation 
	JOINT Lumbar
	{
		OFFSET 0.000000 0.000000 0.000000 
		CHANNELS 3 Zrotation Xrotation Yrotation
		JOINT Neck
		{
			OFFSET 0.000000 0.445665 0.000000 
			CHANNELS 3 Zrotation Xrotation Yrotation
			End Site
			{
				OFFSET 0.000000 0.227535 0.000000 
			}
		}
		JOINT RightShoulder
		{
			OFFSET 0.019635 0.377685 0.194865 
			CHANNELS 3 Zrotation Xrotation Yrotation
			JOINT RightElbow
			{
				OFFSET 0.000000 -0.243375 0.000000 
				CHANNELS 2 Zrotation Yrotation
				JOINT RightWrist
				{
					OFFSET 0.000000 -0.264825 0.000000 
					CHANNELS 2 Zrotation Xrotation
					End Site
					{
						OFFSET 0.006600 -0.176220 0.000990 
					}
				}
			}
		}
		JOINT LeftShoulder
		{
			OFFSET 0.019635 0.377685 -0.194865 
			CHANNELS 3 Zrotation Xrotation Yrotation
			JOINT LeftElbow
			{
				OFFSET 0.000000 -0.243375 0.000000 
				CHANNELS 2 Zrotation Yrotation
				JOINT LeftWrist
				{
					OFFSET 0.000000 -0.264825 0.000000 
					CHANNELS 2 Zrotation Xrotation
					End Site
					{
						OFFSET 0.006600 -0.176220 -0.000990 
					}
				}
			}
		}
	}
	JOINT RightHip
	{
		OFFSET 0.052140 -0.069960 0.075570 
		CHANNELS 3 Zrotation Xrotation Yrotation
		JOINT RightKnee
		{
			OFFSET 0.000000 -0.402270 0.000000 
			CHANNELS 1 Zrotation
			JOINT RightAnkle
			{
				OFFSET 0.000000 -0.404085 0.000000 
				CHANNELS 3 Zrotation Xrotation Yrotation
				End Site
				{
					OFFSET 0.204105 -0.089430 0.008415 
				}
			}
		}
	}
	JOINT LeftHip
	{
		OFFSET 0.052140 -0.069960 -0.075570 
		CHANNELS 3 Zrotation Xrotation Yrotation
		JOINT LeftKnee
		{
			OFFSET 0.000000 -0.402270 0.000000 
			CHANNELS 1 Zrotation
			JOINT LeftAnkle
			{
				OFFSET 0.000000 -0.404085 0.000000 
				CHANNELS 3 Zrotation Xrotation Yrotation
				End Site
				{
					OFFSET 0.204105 -0.089430 -0.008415 
				}
			}
		}
	}
}
MOTION
Frames: 17
Frame Time: 0.02
-0 0.95578 -0 185.33621 0 -2.81816 2.81931 2.19566 -4.58091 -37.30374 4.99017 2.446 -24.95346 -76.00742 -90.01167 23.32687 72.95154 -27.27622 -2.53193 -5.44007 72.61577 75.11647 26.04799 -69.62175 -32.49027 2.2171 -4.36056 1.74885 6.11761 -6.85346 -1.75484 -3.69623 -6.70365 -1.61642 5.53506 -1.72421 -6.87043 0.61564 1.29669 -2.84749
-5e-05 0.95578 2e-05 185.35392 0 -2.81471 2.84063 2.19715 -4.61541 -37.28961 4.98918 2.45422 -24.95934 -76.02218 -90.01166 23.32449 72.88108 -27.18681 -2.55965 -5.5105 72.59557 75.21026 26.04298 -69.65333 -32.4135 2.23875 -4.36424 1.74683 6.1205 -6.85851 -1.74572 -3.7081 -6.71937 -1.61263 5.53179 -1.72474 -6.87651 0.61873 1.29394 -2.8623
-0.0001 0.95577 4e-05 185.37152 0 -2.81126 2.86173 2.19859 -4.64968 -37.27532 4.9883 2.46242 -24.96616 -76.03684 -90.01166 23.32234 72.81157 -27.09951 -2.58714 -5.5814 72.57529 75.30395 26.0382 -69.68498 -32.33742 2.26017 -4.36781 1.74478 6.12337 -6.8636 -1.73663 -3.7199 -6.73493 -1.60874 5.52849 -1.72546 -6.88275 0.62184 1.29125 -2.87686
-0.00015 0.95577 6e-05 185.38871 0 -2.80775 2.88241 2.19988 -4.68338 -37.26036 4.98777 2.47059 -24.97735 -76.0518 -90.01166 23.31959 72.74443 -27.02017 -2.61414 -5.65446 72.55491 75.39786 26.03389 -69.71696 -32.26344 2.28079 -4.37112 1.74262 6.1262 -6.86887 -1.72755 -3.7315 -6.75009 -1.60454 5.52508 -1.72673 -6.88957 0.62507 1.28868 -2.89064
-0.0002 0.95576 8e-05 185.40791 0 -2.80453 2.90561 2.202 -4.72009 -37.2491 4.98528 2.47888 -24.9661 -76.06588 -90.01166 23.31816 72.66381 -26.8992 -2.64391 -5.71554 72.53563 75.4902 26.02653 -69.74689 -32.17843 2.30552 -4.37595 1.74107 6.12931 -6.87313 -1.71841 -3.74411 -6.76747 -1.60218 5.52232 -1.72485 -6.89317 0.62768 1.28538 -2.90869
-0.00024 0.95575 0.0001 185.42291 0 -2.80069 2.92327 2.20232 -4.75044 -37.22994 4.987 2.48693 -25.00183 -76.08132 -90.01165 23.31523 72.61242 -26.86602 -2.66768 -5.80228 72.51365 75.58605 26.02604 -69.78134 -32.11675 2.32165 -4.37748 1.73819 6.13177 -6.87957 -1.70941 -3.75457 -6.78009 -1.5958 5.51812 -1.72977 -6.90367 0.63157 1.28366 -2.9176
-0.0002 0.95575 0.00011 185.42579 0 -2.79522 2.92688 2.19772 -4.76315 -37.1883 5.00043 2.49433 -25.17635 -76.10474 -90.01165 23.29836 72.63819 -27.08563 -2.67594 -5.96193 72.4859 75.6928 26.04262 -69.82802 -32.12074 2.31244 -4.37021 1.7319 6.13276 -6.89204 -1.70055 -3.7592 -6.77979 -1.57861 5.51018 -1.75317 -6.93373 0.6394 1.28612 -2.90125
-0.00014 0.95574 0.00012 185.42459 0 -2.78909 2.92461 2.19126 -4.76952 -37.13868 5.01814 2.5014 -25.39609 -76.12855 -90.01162 23.28265 72.69433 -27.39168 -2.67794 -6.1475 72.4547 75.8034 26.06716 -69.87952 -32.14788 2.29481 -4.35954 1.72418 6.13298 -6.90672 -1.69187 -3.76165 -6.77465 -1.55723 5.50069 -1.78357 -6.97076 0.64843 1.29021 -2.87563
-9e-05 0.95573 0.00013 185.42554 0 -2.78326 2.9243 2.18561 -4.7788 -37.09326 5.03384 2.5087 -25.59038 -76.14976 -90.01165 23.27163 72.73867 -27.65245 -2.68211 -6.31978 72.4244 75.91106 26.08849 -69.92885 -32.1639 2.28204 -4.35021 1.71698 6.13342 -6.92039 -1.68325 -3.76506 -6.77163 -1.5376 5.49178 -1.8109 -7.00424 0.65669 1.29363 -2.85429
-6e-05 0.95573 0.00014 185.42501 0 -2.77753 2.92726 2.18017 -4.78778 -37.04585 5.04972 2.51599 -25.80828 -76.18218 -90.01162 23.23492 72.77377 -27.94072 -2.68915 -6.49746 72.39844 76.02206 26.10542 -69.97744 -32.18327 2.26492 -4.34172 1.71046 6.13468 -6.93406 -1.67404 -3.76862 -6.769 -1.51883 5.48353 -1.83748 -7.03911 0.66601 1.29669 -2.83278
2e-05 0.95572 0.00016 185.42687 0 -2.77132 2.92168 2.17379 -4.7961 -37.00017 5.06635 2.52283 -25.98404 -76.1901 -90.0115 23.2566 72.83632 -28.18946 -2.68868 -6.67125 72.36071 76.12913 26.13674 -70.0295 -32.20014 2.25485 -4.33069 1.70201 6.1337 -6.94826 -1.66611 -3.77132 -6.76433 -1.49701 5.47333 -1.86763 -7.07303 0.67327 1.30096 -2.80931
0.00023 0.95572 0.00024 185.43401 0 -2.76489 2.89667 2.16577 -4.80218 -36.96539 5.08288 2.53169 -26.06296 -76.14036 -90.01187 23.40158 72.95811 -28.33099 -2.66955 -6.81751 72.30713 76.20618 26.17892 -70.08442 -32.21261 2.26641 -4.31346 1.69018 6.12978 -6.96359 -1.66162 -3.77242 -6.75583 -1.47009 5.46004 -1.903 -7.10002 0.67565 1.30755 -2.78367
0.00049 0.95573 0.00033 185.44411 0 -2.75784 2.86271 2.15676 -4.8082 -36.93176 5.10018 2.53949 -26.09129 -76.06372 -90.0113 23.61349 73.10769 -28.42484 -2.64296 -6.96082 72.23842 76.28243 26.24138 -70.14443 -32.21988 2.2854 -4.29378 1.67614 6.1231 -6.97938 -1.65843 -3.77269 -6.74535 -1.43983 5.44446 -1.94222 -7.12623 0.6757 1.3154 -2.75623
0.00073 0.95574 0.00042 185.45438 0 -2.75046 2.83116 2.14788 -4.81551 -36.89501 5.11789 2.54574 -26.12385 -75.99325 -90.0116 23.81798 73.25118 -28.52614 -2.61942 -7.11245 72.16684 76.37118 26.31093 -70.20478 -32.22462 2.30079 -4.27529 1.66209 6.11565 -6.9948 -1.65469 -3.77318 -6.73531 -1.40955 5.42871 -1.98163 -7.15459 0.67613 1.32309 -2.72893
0.00095 0.95574 0.00048 185.45816 0 -2.74564 2.80665 2.14036 -4.81718 -36.86937 5.13267 2.56066 -26.2409 -75.94982 -90.01297 23.92064 73.37018 -28.69295 -2.59712 -7.2359 72.13816 76.40935 26.30767 -70.25106 -32.25226 2.31648 -4.25646 1.65236 6.11657 -7.01086 -1.65079 -3.77425 -6.7269 -1.38552 5.4181 -2.01326 -7.17587 0.67953 1.32913 -2.70404
0.00123 0.95575 0.00062 185.47615 0 -2.73535 2.76511 2.12971 -4.83078 -36.82045 5.15349 2.55712 -26.1647 -75.84186 -90.00821 24.25728 73.54378 -28.70778 -2.57051 -7.41653 72.01422 76.552 26.4661 -70.33162 -32.22888 2.33386 -4.23767 1.633 6.0996 -7.02581 -1.64754 -3.77396 -6.71485 -1.34787 5.39613 -2.06169 -7.21129 0.67609 1.33882 -2.67397
0.00167 0.95579 0.00093 185.53322 0 -2.70998 2.68146 2.11125 -4.87623 -36.71129 5.19243 2.50428 -25.60713 -75.5777 -90.01632 25.17271 73.88518 -28.3435 -2.53447 -7.75841 71.6513 76.98713 27.02095 -70.47215 -32.08133 2.35034 -4.22081 1.5887 6.03232 -7.03626 -1.6456 -3.76978 -6.69204 -1.2724 5.34448 -2.1575 -7.28871 0.65499 1.35906 -2.6289
